<svg width="500" height="500" viewBox="0 0 500 500" fill="none" xmlns="http://www.w3.org/2000/svg">
<path d="M1.5 250C1.5 191.236 2.43997 146.343 7.49959 112.016C12.5585 77.6931 21.7064 54.165 37.9357 37.9357C54.165 21.7064 77.6931 12.5585 112.016 7.49959C146.343 2.43997 191.236 1.5 250 1.5C308.764 1.5 353.657 2.43997 387.984 7.49959C422.307 12.5585 445.835 21.7064 462.064 37.9357C478.294 54.165 487.442 77.6931 492.5 112.016C497.56 146.343 498.5 191.236 498.5 250C498.5 308.764 497.56 353.657 492.5 387.984C487.442 422.307 478.294 445.835 462.064 462.064C445.835 478.294 422.307 487.442 387.984 492.5C353.657 497.56 308.764 498.5 250 498.5C191.236 498.5 146.343 497.56 112.016 492.5C77.6931 487.442 54.165 478.294 37.9357 462.064C21.7064 445.835 12.5585 422.307 7.49959 387.984C2.43997 353.657 1.5 308.764 1.5 250Z" stroke="#E7E9FF" stroke-width="3"/>
<path fill-rule="evenodd" clip-rule="evenodd" d="M221.503 327.179L185.571 425.901L327.182 277.9L425.905 313.832L277.897 172.239L313.829 73.5166L172.243 221.507L73.5199 185.575L221.503 327.179ZM250 275C263.807 275 275 263.808 275 250C275 236.193 263.807 225 250 225C236.193 225 225 236.193 225 250C225 263.808 236.193 275 250 275Z" fill="url(#paint0_linear_21_107)"/>
<defs>
<linearGradient id="paint0_linear_21_107" x1="449.506" y1="122.899" x2="109.445" y2="303.415" gradientUnits="userSpaceOnUse">
<stop stop-color="#B0B9FF"/>
<stop offset="1" stop-color="#E7E9FF"/>
</linearGradient>
</defs>
</svg>
