<svg width="613" height="707" viewBox="0 0 613 707" fill="none" xmlns="http://www.w3.org/2000/svg">
<g clip-path="url(#clip0_17_34)">
<path d="M58 250C58 191.236 58.94 146.343 63.9996 112.016C69.0585 77.6931 78.2064 54.165 94.4357 37.9357C110.665 21.7064 134.193 12.5585 168.516 7.49959C202.843 2.43997 247.736 1.5 306.5 1.5C365.264 1.5 410.157 2.43997 444.484 7.49959C478.807 12.5585 502.335 21.7064 518.564 37.9357C534.794 54.165 543.942 77.6931 549 112.016C554.06 146.343 555 191.236 555 250C555 308.764 554.06 353.657 549 387.984C543.942 422.307 534.794 445.835 518.564 462.064C502.335 478.294 478.807 487.442 444.484 492.5C410.157 497.56 365.264 498.5 306.5 498.5C247.736 498.5 202.843 497.56 168.516 492.5C134.193 487.442 110.665 478.294 94.4357 462.064C78.2064 445.835 69.0585 422.307 63.9996 387.984C58.94 353.657 58 308.764 58 250Z" stroke="#E7E9FF" stroke-width="3"/>
<path fill-rule="evenodd" clip-rule="evenodd" d="M278.003 327.179L242.071 425.901L383.682 277.9L482.405 313.832L334.397 172.239L370.329 73.5166L228.743 221.507L130.02 185.575L278.003 327.179ZM306.5 275C320.307 275 331.5 263.808 331.5 250C331.5 236.193 320.307 225 306.5 225C292.693 225 281.5 236.193 281.5 250C281.5 263.808 292.693 275 306.5 275Z" fill="url(#paint0_linear_17_34)"/>
</g>
<path d="M105.75 606.688C101.679 606.688 98.1818 605.799 95.2578 604.022C92.3338 602.187 90.0691 599.636 88.4638 596.368C86.9158 593.043 86.1418 589.201 86.1418 584.844C86.1418 578.251 87.8618 573.062 91.3018 569.278C94.7991 565.437 99.6151 563.516 105.75 563.516C107.871 563.516 110.05 563.889 112.286 564.634C114.579 565.379 116.614 566.555 118.392 568.16C119.137 568.733 119.424 569.421 119.252 570.224C119.08 571.027 118.621 571.629 117.876 572.03C117.188 572.374 116.414 572.202 115.554 571.514C113.948 570.195 112.314 569.307 110.652 568.848C108.989 568.332 107.412 568.074 105.922 568.074C101.278 568.074 97.6945 569.536 95.1718 572.46C92.7065 575.384 91.4738 579.541 91.4738 584.93C91.4738 590.319 92.7065 594.562 95.1718 597.658C97.6945 600.697 101.278 602.216 105.922 602.216C107.412 602.216 108.989 601.987 110.652 601.528C112.314 601.012 113.948 600.095 115.554 598.776C116.471 598.088 117.245 597.945 117.876 598.346C118.564 598.69 118.965 599.263 119.08 600.066C119.252 600.869 118.994 601.557 118.306 602.13C116.528 603.735 114.522 604.911 112.286 605.656C110.05 606.344 107.871 606.688 105.75 606.688ZM131.032 606.516C129.255 606.516 128.366 605.627 128.366 603.85V566.44C128.366 564.605 129.255 563.688 131.032 563.688C132.695 563.688 133.526 564.605 133.526 566.44V571.6C136.106 566.211 140.492 563.516 146.684 563.516C153.335 563.516 157.549 566.411 159.326 572.202C160.53 569.507 162.365 567.386 164.83 565.838C167.296 564.29 170.162 563.516 173.43 563.516C182.661 563.516 187.276 568.905 187.276 579.684V603.85C187.276 605.627 186.388 606.516 184.61 606.516C182.89 606.516 182.03 605.627 182.03 603.85V580.114C182.03 575.986 181.285 572.947 179.794 570.998C178.361 569.049 175.924 568.074 172.484 568.074C168.815 568.074 165.891 569.364 163.712 571.944C161.534 574.467 160.444 577.907 160.444 582.264V603.85C160.444 605.627 159.584 606.516 157.864 606.516C156.087 606.516 155.198 605.627 155.198 603.85V580.114C155.198 575.986 154.453 572.947 152.962 570.998C151.529 569.049 149.121 568.074 145.738 568.074C142.012 568.074 139.059 569.364 136.88 571.944C134.702 574.467 133.612 577.907 133.612 582.264V603.85C133.612 605.627 132.752 606.516 131.032 606.516ZM216.919 606.688C213.135 606.688 209.867 605.828 207.115 604.108C204.363 602.331 202.213 599.837 200.665 596.626C199.174 593.358 198.429 589.517 198.429 585.102C198.429 578.509 200.092 573.263 203.417 569.364C206.742 565.465 211.243 563.516 216.919 563.516C220.244 563.516 223.168 564.29 225.691 565.838C228.271 567.329 230.192 569.393 231.453 572.03V547.52C231.453 545.743 232.313 544.854 234.033 544.854C235.81 544.854 236.699 545.743 236.699 547.52V603.85C236.699 605.627 235.839 606.516 234.119 606.516C232.342 606.516 231.453 605.627 231.453 603.85V598.174C230.192 600.811 228.271 602.904 225.691 604.452C223.168 605.943 220.244 606.688 216.919 606.688ZM217.607 602.302C221.85 602.302 225.232 600.811 227.755 597.83C230.278 594.791 231.539 590.549 231.539 585.102C231.539 579.655 230.278 575.441 227.755 572.46C225.232 569.479 221.85 567.988 217.607 567.988C213.364 567.988 209.982 569.479 207.459 572.46C204.994 575.441 203.761 579.655 203.761 585.102C203.761 590.549 204.994 594.791 207.459 597.83C209.982 600.811 213.364 602.302 217.607 602.302ZM274.81 621.996C273.032 621.996 272.144 621.107 272.144 619.33V566.44C272.144 564.605 273.032 563.688 274.81 563.688C276.53 563.688 277.39 564.605 277.39 566.44V572.116C278.651 569.479 280.543 567.386 283.066 565.838C285.646 564.29 288.627 563.516 292.01 563.516C295.736 563.516 298.976 564.405 301.728 566.182C304.537 567.959 306.687 570.453 308.178 573.664C309.726 576.875 310.5 580.687 310.5 585.102C310.5 589.517 309.726 593.358 308.178 596.626C306.687 599.837 304.537 602.331 301.728 604.108C298.976 605.828 295.736 606.688 292.01 606.688C288.627 606.688 285.646 605.943 283.066 604.452C280.543 602.961 278.651 600.897 277.39 598.26V619.33C277.39 621.107 276.53 621.996 274.81 621.996ZM291.236 602.302C295.478 602.302 298.861 600.811 301.384 597.83C303.906 594.791 305.168 590.549 305.168 585.102C305.168 579.655 303.906 575.441 301.384 572.46C298.861 569.479 295.478 567.988 291.236 567.988C286.993 567.988 283.61 569.479 281.088 572.46C278.565 575.441 277.304 579.655 277.304 585.102C277.304 590.549 278.565 594.791 281.088 597.83C283.61 600.811 286.993 602.302 291.236 602.302ZM334.51 606.688C331.701 606.688 329.178 606.143 326.942 605.054C324.764 603.965 323.015 602.474 321.696 600.582C320.435 598.69 319.804 596.569 319.804 594.218C319.804 591.122 320.578 588.714 322.126 586.994C323.674 585.217 326.283 583.955 329.952 583.21C333.622 582.465 338.667 582.092 345.088 582.092H347.754V578.996C347.754 575.155 346.98 572.374 345.432 570.654C343.884 568.877 341.419 567.988 338.036 567.988C335.858 567.988 333.736 568.275 331.672 568.848C329.608 569.421 327.458 570.339 325.222 571.6C324.19 572.173 323.359 572.202 322.728 571.686C322.155 571.113 321.868 570.396 321.868 569.536C321.926 568.619 322.413 567.931 323.33 567.472C325.681 566.153 328.118 565.179 330.64 564.548C333.163 563.86 335.6 563.516 337.95 563.516C342.996 563.516 346.722 564.806 349.13 567.386C351.596 569.966 352.828 573.922 352.828 579.254V603.85C352.828 605.627 352.026 606.516 350.42 606.516C348.7 606.516 347.84 605.627 347.84 603.85V598.518C346.694 601.098 344.945 603.105 342.594 604.538C340.301 605.971 337.606 606.688 334.51 606.688ZM335.198 602.474C337.664 602.474 339.814 601.901 341.648 600.754C343.54 599.55 345.031 597.916 346.12 595.852C347.21 593.788 347.754 591.437 347.754 588.8V585.962H345.174C340.014 585.962 335.972 586.191 333.048 586.65C330.182 587.109 328.175 587.911 327.028 589.058C325.882 590.205 325.308 591.781 325.308 593.788C325.308 596.368 326.197 598.461 327.974 600.066C329.752 601.671 332.16 602.474 335.198 602.474ZM378.582 606.688C374.741 606.688 371.759 605.513 369.638 603.162C367.574 600.754 366.542 597.314 366.542 592.842V547.52C366.542 545.743 367.431 544.854 369.208 544.854C370.928 544.854 371.788 545.743 371.788 547.52V592.24C371.788 598.833 374.368 602.13 379.528 602.13C380.044 602.13 380.503 602.101 380.904 602.044C381.363 601.987 381.793 601.958 382.194 601.958C382.71 601.901 383.083 602.015 383.312 602.302C383.599 602.531 383.742 603.047 383.742 603.85C383.742 605.341 382.882 606.229 381.162 606.516C380.761 606.631 380.331 606.688 379.872 606.688C379.413 606.688 378.983 606.688 378.582 606.688ZM408.792 606.688C402.37 606.688 397.296 604.796 393.57 601.012C389.9 597.171 388.066 591.925 388.066 585.274C388.066 580.974 388.897 577.19 390.56 573.922C392.222 570.654 394.516 568.103 397.44 566.268C400.421 564.433 403.832 563.516 407.674 563.516C413.235 563.516 417.564 565.322 420.66 568.934C423.756 572.546 425.304 577.505 425.304 583.812C425.304 585.417 424.501 586.22 422.896 586.22H393.226C393.398 591.38 394.802 595.365 397.44 598.174C400.134 600.926 403.861 602.302 408.62 602.302C410.741 602.302 412.776 602.044 414.726 601.528C416.732 600.955 418.682 599.951 420.574 598.518C421.606 597.83 422.494 597.687 423.24 598.088C423.985 598.432 424.386 599.034 424.444 599.894C424.558 600.697 424.128 601.442 423.154 602.13C421.319 603.621 419.083 604.767 416.446 605.57C413.866 606.315 411.314 606.688 408.792 606.688ZM407.76 567.73C403.402 567.73 399.991 569.106 397.526 571.858C395.118 574.553 393.713 578.05 393.312 582.35H420.574C420.459 577.763 419.312 574.18 417.134 571.6C414.955 569.02 411.83 567.73 407.76 567.73ZM451.735 606.688C447.091 606.688 443.594 605.427 441.243 602.904C438.95 600.381 437.803 596.769 437.803 592.068V568.504H431.439C429.777 568.504 428.945 567.787 428.945 566.354C428.945 564.978 429.777 564.29 431.439 564.29H437.803V553.54C437.803 551.763 438.692 550.874 440.469 550.874C442.189 550.874 443.049 551.763 443.049 553.54V564.29H454.659C456.265 564.29 457.067 564.978 457.067 566.354C457.067 567.787 456.265 568.504 454.659 568.504H443.049V591.38C443.049 594.877 443.766 597.543 445.199 599.378C446.633 601.213 449.012 602.13 452.337 602.13C453.484 602.13 454.43 602.015 455.175 601.786C455.921 601.499 456.58 601.356 457.153 601.356C458.185 601.356 458.701 602.073 458.701 603.506C458.701 603.965 458.587 604.423 458.357 604.882C458.185 605.283 457.841 605.57 457.325 605.742C456.695 605.971 455.835 606.172 454.745 606.344C453.656 606.573 452.653 606.688 451.735 606.688ZM480.038 606.688C475.394 606.688 471.897 605.427 469.546 602.904C467.253 600.381 466.106 596.769 466.106 592.068V568.504H459.742C458.079 568.504 457.248 567.787 457.248 566.354C457.248 564.978 458.079 564.29 459.742 564.29H466.106V553.54C466.106 551.763 466.995 550.874 468.772 550.874C470.492 550.874 471.352 551.763 471.352 553.54V564.29H482.962C484.567 564.29 485.37 564.978 485.37 566.354C485.37 567.787 484.567 568.504 482.962 568.504H471.352V591.38C471.352 594.877 472.069 597.543 473.502 599.378C474.935 601.213 477.315 602.13 480.64 602.13C481.787 602.13 482.733 602.015 483.478 601.786C484.223 601.499 484.883 601.356 485.456 601.356C486.488 601.356 487.004 602.073 487.004 603.506C487.004 603.965 486.889 604.423 486.66 604.882C486.488 605.283 486.144 605.57 485.628 605.742C484.997 605.971 484.137 606.172 483.048 606.344C481.959 606.573 480.955 606.688 480.038 606.688ZM510.833 606.688C504.411 606.688 499.337 604.796 495.611 601.012C491.941 597.171 490.107 591.925 490.107 585.274C490.107 580.974 490.938 577.19 492.601 573.922C494.263 570.654 496.557 568.103 499.481 566.268C502.462 564.433 505.873 563.516 509.715 563.516C515.276 563.516 519.605 565.322 522.701 568.934C525.797 572.546 527.345 577.505 527.345 583.812C527.345 585.417 526.542 586.22 524.937 586.22H495.267C495.439 591.38 496.843 595.365 499.481 598.174C502.175 600.926 505.902 602.302 510.661 602.302C512.782 602.302 514.817 602.044 516.767 601.528C518.773 600.955 520.723 599.951 522.615 598.518C523.647 597.83 524.535 597.687 525.281 598.088C526.026 598.432 526.427 599.034 526.485 599.894C526.599 600.697 526.169 601.442 525.195 602.13C523.36 603.621 521.124 604.767 518.487 605.57C515.907 606.315 513.355 606.688 510.833 606.688ZM509.801 567.73C505.443 567.73 502.032 569.106 499.567 571.858C497.159 574.553 495.754 578.05 495.353 582.35H522.615C522.5 577.763 521.353 574.18 519.175 571.6C516.996 569.02 513.871 567.73 509.801 567.73Z" fill="white"/>
<path d="M176.317 686.36C175.077 686.36 174.457 685.74 174.457 684.5V659.84H170.197C169.077 659.84 168.517 659.34 168.517 658.34C168.517 657.38 169.077 656.9 170.197 656.9H174.457V655.46C174.457 648.14 177.957 644.18 184.957 643.58L186.577 643.46C187.337 643.42 187.817 643.64 188.017 644.12C188.257 644.56 188.277 645.04 188.077 645.56C187.877 646.08 187.497 646.36 186.937 646.4L185.257 646.58C182.777 646.78 180.957 647.6 179.797 649.04C178.677 650.44 178.117 652.48 178.117 655.16V656.9H185.257C186.377 656.9 186.937 657.38 186.937 658.34C186.937 659.34 186.377 659.84 185.257 659.84H178.117V684.5C178.117 685.74 177.517 686.36 176.317 686.36ZM202.939 686.48C200.219 686.48 197.859 685.88 195.859 684.68C193.859 683.44 192.299 681.7 191.179 679.46C190.099 677.18 189.559 674.5 189.559 671.42C189.559 668.38 190.099 665.74 191.179 663.5C192.299 661.22 193.859 659.46 195.859 658.22C197.859 656.98 200.219 656.36 202.939 656.36C205.699 656.36 208.079 656.98 210.079 658.22C212.079 659.46 213.619 661.22 214.699 663.5C215.819 665.74 216.379 668.38 216.379 671.42C216.379 674.5 215.819 677.18 214.699 679.46C213.619 681.7 212.079 683.44 210.079 684.68C208.079 685.88 205.699 686.48 202.939 686.48ZM202.939 683.42C205.899 683.42 208.259 682.38 210.019 680.3C211.779 678.18 212.659 675.22 212.659 671.42C212.659 667.62 211.779 664.68 210.019 662.6C208.259 660.52 205.899 659.48 202.939 659.48C199.979 659.48 197.619 660.52 195.859 662.6C194.139 664.68 193.279 667.62 193.279 671.42C193.279 675.22 194.139 678.18 195.859 680.3C197.619 682.38 199.979 683.42 202.939 683.42ZM226.031 686.36C224.791 686.36 224.171 685.74 224.171 684.5V658.4C224.171 657.12 224.791 656.48 226.031 656.48C227.191 656.48 227.771 657.12 227.771 658.4V662.18C228.651 660.3 229.951 658.86 231.671 657.86C233.431 656.86 235.451 656.34 237.731 656.3C238.211 656.26 238.611 656.36 238.931 656.6C239.251 656.84 239.411 657.22 239.411 657.74C239.451 658.86 238.871 659.48 237.671 659.6L236.831 659.66C233.991 659.9 231.791 660.84 230.231 662.48C228.671 664.08 227.891 666.24 227.891 668.96V684.5C227.891 685.74 227.271 686.36 226.031 686.36ZM273.716 686.48C267.676 686.48 262.756 685.02 258.956 682.1C258.276 681.62 257.956 681.06 257.996 680.42C258.076 679.74 258.376 679.24 258.896 678.92C259.416 678.6 260.016 678.68 260.696 679.16C262.536 680.56 264.476 681.58 266.516 682.22C268.596 682.82 270.996 683.12 273.716 683.12C277.516 683.12 280.356 682.38 282.236 680.9C284.156 679.42 285.116 677.48 285.116 675.08C285.116 673.08 284.416 671.52 283.016 670.4C281.656 669.28 279.396 668.4 276.236 667.76L270.176 666.5C266.416 665.74 263.596 664.46 261.716 662.66C259.876 660.86 258.956 658.46 258.956 655.46C258.956 653.02 259.576 650.88 260.816 649.04C262.096 647.2 263.856 645.78 266.096 644.78C268.336 643.74 270.916 643.22 273.836 643.22C276.436 643.22 278.816 643.58 280.976 644.3C283.176 645.02 285.176 646.16 286.976 647.72C287.576 648.2 287.836 648.76 287.756 649.4C287.676 650.04 287.376 650.52 286.856 650.84C286.376 651.12 285.796 651 285.116 650.48C283.436 649.12 281.676 648.14 279.836 647.54C277.996 646.9 275.996 646.58 273.836 646.58C270.476 646.58 267.776 647.38 265.736 648.98C263.736 650.58 262.736 652.72 262.736 655.4C262.736 657.52 263.376 659.2 264.656 660.44C265.936 661.64 267.996 662.52 270.836 663.08L276.956 664.34C280.996 665.18 283.996 666.44 285.956 668.12C287.916 669.76 288.896 672.02 288.896 674.9C288.896 677.18 288.276 679.2 287.036 680.96C285.836 682.68 284.096 684.04 281.816 685.04C279.536 686 276.836 686.48 273.716 686.48ZM307.821 686.48C305.101 686.48 302.741 685.88 300.741 684.68C298.741 683.44 297.181 681.7 296.061 679.46C294.981 677.18 294.441 674.5 294.441 671.42C294.441 668.38 294.981 665.74 296.061 663.5C297.181 661.22 298.741 659.46 300.741 658.22C302.741 656.98 305.101 656.36 307.821 656.36C310.581 656.36 312.961 656.98 314.961 658.22C316.961 659.46 318.501 661.22 319.581 663.5C320.701 665.74 321.261 668.38 321.261 671.42C321.261 674.5 320.701 677.18 319.581 679.46C318.501 681.7 316.961 683.44 314.961 684.68C312.961 685.88 310.581 686.48 307.821 686.48ZM307.821 683.42C310.781 683.42 313.141 682.38 314.901 680.3C316.661 678.18 317.541 675.22 317.541 671.42C317.541 667.62 316.661 664.68 314.901 662.6C313.141 660.52 310.781 659.48 307.821 659.48C304.861 659.48 302.501 660.52 300.741 662.6C299.021 664.68 298.161 667.62 298.161 671.42C298.161 675.22 299.021 678.18 300.741 680.3C302.501 682.38 304.861 683.42 307.821 683.42ZM337.454 686.48C334.774 686.48 332.694 685.66 331.214 684.02C329.774 682.34 329.054 679.94 329.054 676.82V645.2C329.054 643.96 329.674 643.34 330.914 643.34C332.114 643.34 332.714 643.96 332.714 645.2V676.4C332.714 681 334.514 683.3 338.114 683.3C338.474 683.3 338.794 683.28 339.074 683.24C339.394 683.2 339.694 683.18 339.974 683.18C340.334 683.14 340.594 683.22 340.754 683.42C340.954 683.58 341.054 683.94 341.054 684.5C341.054 685.54 340.454 686.16 339.254 686.36C338.974 686.44 338.674 686.48 338.354 686.48C338.034 686.48 337.734 686.48 337.454 686.48ZM348.023 649.4C346.263 649.4 345.383 648.56 345.383 646.88C345.383 645.24 346.263 644.42 348.023 644.42C349.783 644.42 350.663 645.24 350.663 646.88C350.663 648.56 349.783 649.4 348.023 649.4ZM348.023 686.24C346.783 686.24 346.163 685.58 346.163 684.26V658.58C346.163 657.3 346.783 656.66 348.023 656.66C349.223 656.66 349.823 657.3 349.823 658.58V684.26C349.823 685.58 349.223 686.24 348.023 686.24ZM370.564 686.48C367.924 686.48 365.644 685.88 363.724 684.68C361.804 683.44 360.304 681.7 359.224 679.46C358.184 677.18 357.664 674.5 357.664 671.42C357.664 666.82 358.824 663.16 361.144 660.44C363.464 657.72 366.604 656.36 370.564 656.36C372.884 656.36 374.924 656.9 376.684 657.98C378.484 659.02 379.824 660.46 380.704 662.3V645.2C380.704 643.96 381.304 643.34 382.504 643.34C383.744 643.34 384.364 643.96 384.364 645.2V684.5C384.364 685.74 383.764 686.36 382.564 686.36C381.324 686.36 380.704 685.74 380.704 684.5V680.54C379.824 682.38 378.484 683.84 376.684 684.92C374.924 685.96 372.884 686.48 370.564 686.48ZM371.044 683.42C374.004 683.42 376.364 682.38 378.124 680.3C379.884 678.18 380.764 675.22 380.764 671.42C380.764 667.62 379.884 664.68 378.124 662.6C376.364 660.52 374.004 659.48 371.044 659.48C368.084 659.48 365.724 660.52 363.964 662.6C362.244 664.68 361.384 667.62 361.384 671.42C361.384 675.22 362.244 678.18 363.964 680.3C365.724 682.38 368.084 683.42 371.044 683.42ZM395.776 686.18C394.976 686.18 394.316 685.92 393.796 685.4C393.276 684.88 393.016 684.22 393.016 683.42C393.016 682.62 393.276 681.96 393.796 681.44C394.316 680.92 394.976 680.66 395.776 680.66C396.616 680.66 397.276 680.92 397.756 681.44C398.276 681.96 398.536 682.62 398.536 683.42C398.536 684.22 398.276 684.88 397.756 685.4C397.276 685.92 396.616 686.18 395.776 686.18ZM409.434 649.4C407.674 649.4 406.794 648.56 406.794 646.88C406.794 645.24 407.674 644.42 409.434 644.42C411.194 644.42 412.074 645.24 412.074 646.88C412.074 648.56 411.194 649.4 409.434 649.4ZM400.974 697.46C400.214 697.5 399.694 697.28 399.414 696.8C399.094 696.32 399.034 695.82 399.234 695.3C399.434 694.78 399.874 694.5 400.554 694.46C402.914 694.38 404.674 693.76 405.834 692.6C407.034 691.48 407.634 689.66 407.634 687.14V658.4C407.634 657.12 408.234 656.48 409.434 656.48C410.674 656.48 411.294 657.12 411.294 658.4V686.9C411.294 690.5 410.374 693.14 408.534 694.82C406.734 696.54 404.214 697.42 400.974 697.46ZM430.35 686.48C428.55 686.48 426.75 686.24 424.95 685.76C423.19 685.28 421.51 684.46 419.91 683.3C419.39 682.98 419.15 682.54 419.19 681.98C419.23 681.38 419.45 680.92 419.85 680.6C420.29 680.28 420.83 680.32 421.47 680.72C423.03 681.76 424.55 682.48 426.03 682.88C427.51 683.28 428.99 683.48 430.47 683.48C432.95 683.48 434.81 683.04 436.05 682.16C437.33 681.24 437.97 679.98 437.97 678.38C437.97 677.14 437.55 676.16 436.71 675.44C435.87 674.72 434.55 674.14 432.75 673.7L427.53 672.5C422.61 671.38 420.15 668.84 420.15 664.88C420.15 662.32 421.15 660.26 423.15 658.7C425.15 657.14 427.79 656.36 431.07 656.36C432.79 656.36 434.45 656.62 436.05 657.14C437.69 657.66 439.11 658.46 440.31 659.54C440.83 659.94 441.05 660.42 440.97 660.98C440.89 661.54 440.61 661.96 440.13 662.24C439.69 662.52 439.17 662.44 438.57 662C437.41 661.12 436.19 660.48 434.91 660.08C433.63 659.64 432.33 659.42 431.01 659.42C428.69 659.42 426.89 659.9 425.61 660.86C424.37 661.82 423.75 663.12 423.75 664.76C423.75 666 424.13 667 424.89 667.76C425.65 668.52 426.89 669.1 428.61 669.5L433.83 670.7C436.43 671.3 438.37 672.2 439.65 673.4C440.93 674.56 441.57 676.14 441.57 678.14C441.57 680.74 440.55 682.78 438.51 684.26C436.47 685.74 433.75 686.48 430.35 686.48Z" fill="#C7C8D1"/>
<defs>
<linearGradient id="paint0_linear_17_34" x1="506.006" y1="122.899" x2="165.945" y2="303.415" gradientUnits="userSpaceOnUse">
<stop stop-color="#B0B9FF"/>
<stop offset="1" stop-color="#E7E9FF"/>
</linearGradient>
<clipPath id="clip0_17_34">
<rect x="56.5" width="500" height="500" rx="30" fill="white"/>
</clipPath>
</defs>
</svg>
