<svg width="693" height="200" viewBox="0 0 693 200" fill="none" xmlns="http://www.w3.org/2000/svg">
<path d="M1.5 100C1.5 76.4856 1.87747 58.5932 3.89022 44.9375C5.90222 31.2868 9.51886 22.1025 15.8107 15.8107C22.1025 9.51886 31.2868 5.90222 44.9375 3.89022C58.5932 1.87747 76.4856 1.5 100 1.5C123.514 1.5 141.407 1.87747 155.063 3.89022C168.713 5.90222 177.898 9.51886 184.189 15.8107C190.481 22.1025 194.098 31.2868 196.11 44.9375C198.123 58.5932 198.5 76.4856 198.5 100C198.5 123.514 198.123 141.407 196.11 155.063C194.098 168.713 190.481 177.898 184.189 184.189C177.898 190.481 168.713 194.098 155.063 196.11C141.407 198.123 123.514 198.5 100 198.5C76.4856 198.5 58.5932 198.123 44.9375 196.11C31.2868 194.098 22.1025 190.481 15.8107 184.189C9.51886 177.898 5.90222 168.713 3.89022 155.063C1.87747 141.407 1.5 123.514 1.5 100Z" stroke="#E7E9FF" stroke-width="3"/>
<path fill-rule="evenodd" clip-rule="evenodd" d="M88.6014 130.871L74.2286 170.36L130.873 111.16L170.362 125.532L111.159 68.8954L125.532 29.4062L68.8971 88.6023L29.408 74.2294L88.6014 130.871ZM100 110C105.523 110 110 105.523 110 99.9997C110 94.4768 105.523 89.9997 100 89.9997C94.4772 89.9997 90 94.4768 90 99.9997C90 105.523 94.4772 110 100 110Z" fill="url(#paint0_linear_17_44)"/>
<path d="M263.908 83.188C259.837 83.188 256.34 82.2993 253.416 80.522C250.492 78.6873 248.227 76.136 246.622 72.868C245.074 69.5427 244.3 65.7013 244.3 61.344C244.3 54.7507 246.02 49.562 249.46 45.778C252.957 41.9367 257.773 40.016 263.908 40.016C266.029 40.016 268.208 40.3887 270.444 41.134C272.737 41.8793 274.773 43.0547 276.55 44.66C277.295 45.2333 277.582 45.9213 277.41 46.724C277.238 47.5267 276.779 48.1287 276.034 48.53C275.346 48.874 274.572 48.702 273.712 48.014C272.107 46.6953 270.473 45.8067 268.81 45.348C267.147 44.832 265.571 44.574 264.08 44.574C259.436 44.574 255.853 46.036 253.33 48.96C250.865 51.884 249.632 56.0407 249.632 61.43C249.632 66.8193 250.865 71.062 253.33 74.158C255.853 77.1967 259.436 78.716 264.08 78.716C265.571 78.716 267.147 78.4867 268.81 78.028C270.473 77.512 272.107 76.5947 273.712 75.276C274.629 74.588 275.403 74.4447 276.034 74.846C276.722 75.19 277.123 75.7633 277.238 76.566C277.41 77.3687 277.152 78.0567 276.464 78.63C274.687 80.2353 272.68 81.4107 270.444 82.156C268.208 82.844 266.029 83.188 263.908 83.188ZM289.191 83.016C287.413 83.016 286.525 82.1273 286.525 80.35V42.94C286.525 41.1053 287.413 40.188 289.191 40.188C290.853 40.188 291.685 41.1053 291.685 42.94V48.1C294.265 42.7107 298.651 40.016 304.843 40.016C311.493 40.016 315.707 42.9113 317.485 48.702C318.689 46.0073 320.523 43.886 322.989 42.338C325.454 40.79 328.321 40.016 331.589 40.016C340.819 40.016 345.435 45.4053 345.435 56.184V80.35C345.435 82.1273 344.546 83.016 342.769 83.016C341.049 83.016 340.189 82.1273 340.189 80.35V56.614C340.189 52.486 339.443 49.4473 337.953 47.498C336.519 45.5487 334.083 44.574 330.643 44.574C326.973 44.574 324.049 45.864 321.871 48.444C319.692 50.9667 318.603 54.4067 318.603 58.764V80.35C318.603 82.1273 317.743 83.016 316.023 83.016C314.245 83.016 313.357 82.1273 313.357 80.35V56.614C313.357 52.486 312.611 49.4473 311.121 47.498C309.687 45.5487 307.279 44.574 303.897 44.574C300.17 44.574 297.217 45.864 295.039 48.444C292.86 50.9667 291.771 54.4067 291.771 58.764V80.35C291.771 82.1273 290.911 83.016 289.191 83.016ZM375.077 83.188C371.293 83.188 368.025 82.328 365.273 80.608C362.521 78.8307 360.371 76.3367 358.823 73.126C357.332 69.858 356.587 66.0167 356.587 61.602C356.587 55.0087 358.25 49.7627 361.575 45.864C364.9 41.9653 369.401 40.016 375.077 40.016C378.402 40.016 381.326 40.79 383.849 42.338C386.429 43.8287 388.35 45.8927 389.611 48.53V24.02C389.611 22.2427 390.471 21.354 392.191 21.354C393.968 21.354 394.857 22.2427 394.857 24.02V80.35C394.857 82.1273 393.997 83.016 392.277 83.016C390.5 83.016 389.611 82.1273 389.611 80.35V74.674C388.35 77.3113 386.429 79.404 383.849 80.952C381.326 82.4427 378.402 83.188 375.077 83.188ZM375.765 78.802C380.008 78.802 383.39 77.3113 385.913 74.33C388.436 71.2913 389.697 67.0487 389.697 61.602C389.697 56.1553 388.436 51.9413 385.913 48.96C383.39 45.9787 380.008 44.488 375.765 44.488C371.522 44.488 368.14 45.9787 365.617 48.96C363.152 51.9413 361.919 56.1553 361.919 61.602C361.919 67.0487 363.152 71.2913 365.617 74.33C368.14 77.3113 371.522 78.802 375.765 78.802ZM432.968 98.496C431.191 98.496 430.302 97.6073 430.302 95.83V42.94C430.302 41.1053 431.191 40.188 432.968 40.188C434.688 40.188 435.548 41.1053 435.548 42.94V48.616C436.809 45.9787 438.701 43.886 441.224 42.338C443.804 40.79 446.785 40.016 450.168 40.016C453.895 40.016 457.134 40.9047 459.886 42.682C462.695 44.4593 464.845 46.9533 466.336 50.164C467.884 53.3747 468.658 57.1873 468.658 61.602C468.658 66.0167 467.884 69.858 466.336 73.126C464.845 76.3367 462.695 78.8307 459.886 80.608C457.134 82.328 453.895 83.188 450.168 83.188C446.785 83.188 443.804 82.4427 441.224 80.952C438.701 79.4613 436.809 77.3973 435.548 74.76V95.83C435.548 97.6073 434.688 98.496 432.968 98.496ZM449.394 78.802C453.637 78.802 457.019 77.3113 459.542 74.33C462.065 71.2913 463.326 67.0487 463.326 61.602C463.326 56.1553 462.065 51.9413 459.542 48.96C457.019 45.9787 453.637 44.488 449.394 44.488C445.151 44.488 441.769 45.9787 439.246 48.96C436.723 51.9413 435.462 56.1553 435.462 61.602C435.462 67.0487 436.723 71.2913 439.246 74.33C441.769 77.3113 445.151 78.802 449.394 78.802ZM492.669 83.188C489.859 83.188 487.337 82.6433 485.101 81.554C482.922 80.4647 481.173 78.974 479.855 77.082C478.593 75.19 477.963 73.0687 477.963 70.718C477.963 67.622 478.737 65.214 480.285 63.494C481.833 61.7167 484.441 60.4553 488.111 59.71C491.78 58.9647 496.825 58.592 503.247 58.592H505.913V55.496C505.913 51.6547 505.139 48.874 503.591 47.154C502.043 45.3767 499.577 44.488 496.195 44.488C494.016 44.488 491.895 44.7747 489.831 45.348C487.767 45.9213 485.617 46.8387 483.381 48.1C482.349 48.6733 481.517 48.702 480.887 48.186C480.313 47.6127 480.027 46.896 480.027 46.036C480.084 45.1187 480.571 44.4307 481.489 43.972C483.839 42.6533 486.276 41.6787 488.799 41.048C491.321 40.36 493.758 40.016 496.109 40.016C501.154 40.016 504.881 41.306 507.289 43.886C509.754 46.466 510.987 50.422 510.987 55.754V80.35C510.987 82.1273 510.184 83.016 508.579 83.016C506.859 83.016 505.999 82.1273 505.999 80.35V75.018C504.852 77.598 503.103 79.6047 500.753 81.038C498.459 82.4713 495.765 83.188 492.669 83.188ZM493.357 78.974C495.822 78.974 497.972 78.4007 499.807 77.254C501.699 76.05 503.189 74.416 504.279 72.352C505.368 70.288 505.913 67.9373 505.913 65.3V62.462H503.333C498.173 62.462 494.131 62.6913 491.207 63.15C488.34 63.6087 486.333 64.4113 485.187 65.558C484.04 66.7047 483.467 68.2813 483.467 70.288C483.467 72.868 484.355 74.9607 486.133 76.566C487.91 78.1713 490.318 78.974 493.357 78.974ZM536.74 83.188C532.899 83.188 529.918 82.0127 527.796 79.662C525.732 77.254 524.7 73.814 524.7 69.342V24.02C524.7 22.2427 525.589 21.354 527.366 21.354C529.086 21.354 529.946 22.2427 529.946 24.02V68.74C529.946 75.3333 532.526 78.63 537.686 78.63C538.202 78.63 538.661 78.6013 539.062 78.544C539.521 78.4867 539.951 78.458 540.352 78.458C540.868 78.4007 541.241 78.5153 541.47 78.802C541.757 79.0313 541.9 79.5473 541.9 80.35C541.9 81.8407 541.04 82.7293 539.32 83.016C538.919 83.1307 538.489 83.188 538.03 83.188C537.572 83.188 537.142 83.188 536.74 83.188ZM566.95 83.188C560.528 83.188 555.454 81.296 551.728 77.512C548.058 73.6707 546.224 68.4247 546.224 61.774C546.224 57.474 547.055 53.69 548.718 50.422C550.38 47.154 552.674 44.6027 555.598 42.768C558.579 40.9333 561.99 40.016 565.832 40.016C571.393 40.016 575.722 41.822 578.818 45.434C581.914 49.046 583.462 54.0053 583.462 60.312C583.462 61.9173 582.659 62.72 581.054 62.72H551.384C551.556 67.88 552.96 71.8647 555.598 74.674C558.292 77.426 562.019 78.802 566.778 78.802C568.899 78.802 570.934 78.544 572.884 78.028C574.89 77.4547 576.84 76.4513 578.732 75.018C579.764 74.33 580.652 74.1867 581.398 74.588C582.143 74.932 582.544 75.534 582.602 76.394C582.716 77.1967 582.286 77.942 581.312 78.63C579.477 80.1207 577.241 81.2673 574.604 82.07C572.024 82.8153 569.472 83.188 566.95 83.188ZM565.918 44.23C561.56 44.23 558.149 45.606 555.684 48.358C553.276 51.0527 551.871 54.55 551.47 58.85H578.732C578.617 54.2633 577.47 50.68 575.292 48.1C573.113 45.52 569.988 44.23 565.918 44.23ZM609.893 83.188C605.249 83.188 601.752 81.9267 599.401 79.404C597.108 76.8813 595.961 73.2693 595.961 68.568V45.004H589.597C587.935 45.004 587.103 44.2873 587.103 42.854C587.103 41.478 587.935 40.79 589.597 40.79H595.961V30.04C595.961 28.2627 596.85 27.374 598.627 27.374C600.347 27.374 601.207 28.2627 601.207 30.04V40.79H612.817C614.423 40.79 615.225 41.478 615.225 42.854C615.225 44.2873 614.423 45.004 612.817 45.004H601.207V67.88C601.207 71.3773 601.924 74.0433 603.357 75.878C604.791 77.7127 607.17 78.63 610.495 78.63C611.642 78.63 612.588 78.5153 613.333 78.286C614.079 77.9993 614.738 77.856 615.311 77.856C616.343 77.856 616.859 78.5727 616.859 80.006C616.859 80.4647 616.745 80.9233 616.515 81.382C616.343 81.7833 615.999 82.07 615.483 82.242C614.853 82.4713 613.993 82.672 612.903 82.844C611.814 83.0733 610.811 83.188 609.893 83.188ZM638.196 83.188C633.552 83.188 630.055 81.9267 627.704 79.404C625.411 76.8813 624.264 73.2693 624.264 68.568V45.004H617.9C616.237 45.004 615.406 44.2873 615.406 42.854C615.406 41.478 616.237 40.79 617.9 40.79H624.264V30.04C624.264 28.2627 625.153 27.374 626.93 27.374C628.65 27.374 629.51 28.2627 629.51 30.04V40.79H641.12C642.725 40.79 643.528 41.478 643.528 42.854C643.528 44.2873 642.725 45.004 641.12 45.004H629.51V67.88C629.51 71.3773 630.227 74.0433 631.66 75.878C633.093 77.7127 635.473 78.63 638.798 78.63C639.945 78.63 640.891 78.5153 641.636 78.286C642.381 77.9993 643.041 77.856 643.614 77.856C644.646 77.856 645.162 78.5727 645.162 80.006C645.162 80.4647 645.047 80.9233 644.818 81.382C644.646 81.7833 644.302 82.07 643.786 82.242C643.155 82.4713 642.295 82.672 641.206 82.844C640.117 83.0733 639.113 83.188 638.196 83.188ZM668.991 83.188C662.57 83.188 657.496 81.296 653.769 77.512C650.1 73.6707 648.265 68.4247 648.265 61.774C648.265 57.474 649.096 53.69 650.759 50.422C652.422 47.154 654.715 44.6027 657.639 42.768C660.62 40.9333 664.032 40.016 667.873 40.016C673.434 40.016 677.763 41.822 680.859 45.434C683.955 49.046 685.503 54.0053 685.503 60.312C685.503 61.9173 684.7 62.72 683.095 62.72H653.425C653.597 67.88 655.002 71.8647 657.639 74.674C660.334 77.426 664.06 78.802 668.819 78.802C670.94 78.802 672.976 78.544 674.925 78.028C676.932 77.4547 678.881 76.4513 680.773 75.018C681.805 74.33 682.694 74.1867 683.439 74.588C684.184 74.932 684.586 75.534 684.643 76.394C684.758 77.1967 684.328 77.942 683.353 78.63C681.518 80.1207 679.282 81.2673 676.645 82.07C674.065 82.8153 671.514 83.188 668.991 83.188ZM667.959 44.23C663.602 44.23 660.19 45.606 657.725 48.358C655.317 51.0527 653.912 54.55 653.511 58.85H680.773C680.658 54.2633 679.512 50.68 677.333 48.1C675.154 45.52 672.03 44.23 667.959 44.23Z" fill="white"/>
<path d="M248.04 162.86C246.8 162.86 246.18 162.24 246.18 161V136.34H241.92C240.8 136.34 240.24 135.84 240.24 134.84C240.24 133.88 240.8 133.4 241.92 133.4H246.18V131.96C246.18 124.64 249.68 120.68 256.68 120.08L258.3 119.96C259.06 119.92 259.54 120.14 259.74 120.62C259.98 121.06 260 121.54 259.8 122.06C259.6 122.58 259.22 122.86 258.66 122.9L256.98 123.08C254.5 123.28 252.68 124.1 251.52 125.54C250.4 126.94 249.84 128.98 249.84 131.66V133.4H256.98C258.1 133.4 258.66 133.88 258.66 134.84C258.66 135.84 258.1 136.34 256.98 136.34H249.84V161C249.84 162.24 249.24 162.86 248.04 162.86ZM274.661 162.98C271.941 162.98 269.581 162.38 267.581 161.18C265.581 159.94 264.021 158.2 262.901 155.96C261.821 153.68 261.281 151 261.281 147.92C261.281 144.88 261.821 142.24 262.901 140C264.021 137.72 265.581 135.96 267.581 134.72C269.581 133.48 271.941 132.86 274.661 132.86C277.421 132.86 279.801 133.48 281.801 134.72C283.801 135.96 285.341 137.72 286.421 140C287.541 142.24 288.101 144.88 288.101 147.92C288.101 151 287.541 153.68 286.421 155.96C285.341 158.2 283.801 159.94 281.801 161.18C279.801 162.38 277.421 162.98 274.661 162.98ZM274.661 159.92C277.621 159.92 279.981 158.88 281.741 156.8C283.501 154.68 284.381 151.72 284.381 147.92C284.381 144.12 283.501 141.18 281.741 139.1C279.981 137.02 277.621 135.98 274.661 135.98C271.701 135.98 269.341 137.02 267.581 139.1C265.861 141.18 265.001 144.12 265.001 147.92C265.001 151.72 265.861 154.68 267.581 156.8C269.341 158.88 271.701 159.92 274.661 159.92ZM297.754 162.86C296.514 162.86 295.894 162.24 295.894 161V134.9C295.894 133.62 296.514 132.98 297.754 132.98C298.914 132.98 299.494 133.62 299.494 134.9V138.68C300.374 136.8 301.674 135.36 303.394 134.36C305.154 133.36 307.174 132.84 309.454 132.8C309.934 132.76 310.334 132.86 310.654 133.1C310.974 133.34 311.134 133.72 311.134 134.24C311.174 135.36 310.594 135.98 309.394 136.1L308.554 136.16C305.714 136.4 303.514 137.34 301.954 138.98C300.394 140.58 299.614 142.74 299.614 145.46V161C299.614 162.24 298.994 162.86 297.754 162.86ZM345.439 162.98C339.399 162.98 334.479 161.52 330.679 158.6C329.999 158.12 329.679 157.56 329.719 156.92C329.799 156.24 330.099 155.74 330.619 155.42C331.139 155.1 331.739 155.18 332.419 155.66C334.259 157.06 336.199 158.08 338.239 158.72C340.319 159.32 342.719 159.62 345.439 159.62C349.239 159.62 352.079 158.88 353.959 157.4C355.879 155.92 356.839 153.98 356.839 151.58C356.839 149.58 356.139 148.02 354.739 146.9C353.379 145.78 351.119 144.9 347.959 144.26L341.899 143C338.139 142.24 335.319 140.96 333.439 139.16C331.599 137.36 330.679 134.96 330.679 131.96C330.679 129.52 331.299 127.38 332.539 125.54C333.819 123.7 335.579 122.28 337.819 121.28C340.059 120.24 342.639 119.72 345.559 119.72C348.159 119.72 350.539 120.08 352.699 120.8C354.899 121.52 356.899 122.66 358.699 124.22C359.299 124.7 359.559 125.26 359.479 125.9C359.399 126.54 359.099 127.02 358.579 127.34C358.099 127.62 357.519 127.5 356.839 126.98C355.159 125.62 353.399 124.64 351.559 124.04C349.719 123.4 347.719 123.08 345.559 123.08C342.199 123.08 339.499 123.88 337.459 125.48C335.459 127.08 334.459 129.22 334.459 131.9C334.459 134.02 335.099 135.7 336.379 136.94C337.659 138.14 339.719 139.02 342.559 139.58L348.679 140.84C352.719 141.68 355.719 142.94 357.679 144.62C359.639 146.26 360.619 148.52 360.619 151.4C360.619 153.68 359.999 155.7 358.759 157.46C357.559 159.18 355.819 160.54 353.539 161.54C351.259 162.5 348.559 162.98 345.439 162.98ZM379.544 162.98C376.824 162.98 374.464 162.38 372.464 161.18C370.464 159.94 368.904 158.2 367.784 155.96C366.704 153.68 366.164 151 366.164 147.92C366.164 144.88 366.704 142.24 367.784 140C368.904 137.72 370.464 135.96 372.464 134.72C374.464 133.48 376.824 132.86 379.544 132.86C382.304 132.86 384.684 133.48 386.684 134.72C388.684 135.96 390.224 137.72 391.304 140C392.424 142.24 392.984 144.88 392.984 147.92C392.984 151 392.424 153.68 391.304 155.96C390.224 158.2 388.684 159.94 386.684 161.18C384.684 162.38 382.304 162.98 379.544 162.98ZM379.544 159.92C382.504 159.92 384.864 158.88 386.624 156.8C388.384 154.68 389.264 151.72 389.264 147.92C389.264 144.12 388.384 141.18 386.624 139.1C384.864 137.02 382.504 135.98 379.544 135.98C376.584 135.98 374.224 137.02 372.464 139.1C370.744 141.18 369.884 144.12 369.884 147.92C369.884 151.72 370.744 154.68 372.464 156.8C374.224 158.88 376.584 159.92 379.544 159.92ZM409.177 162.98C406.497 162.98 404.417 162.16 402.937 160.52C401.497 158.84 400.777 156.44 400.777 153.32V121.7C400.777 120.46 401.397 119.84 402.637 119.84C403.837 119.84 404.437 120.46 404.437 121.7V152.9C404.437 157.5 406.237 159.8 409.837 159.8C410.197 159.8 410.517 159.78 410.797 159.74C411.117 159.7 411.417 159.68 411.697 159.68C412.057 159.64 412.317 159.72 412.477 159.92C412.677 160.08 412.777 160.44 412.777 161C412.777 162.04 412.177 162.66 410.977 162.86C410.697 162.94 410.397 162.98 410.077 162.98C409.757 162.98 409.457 162.98 409.177 162.98ZM419.746 125.9C417.986 125.9 417.106 125.06 417.106 123.38C417.106 121.74 417.986 120.92 419.746 120.92C421.506 120.92 422.386 121.74 422.386 123.38C422.386 125.06 421.506 125.9 419.746 125.9ZM419.746 162.74C418.506 162.74 417.886 162.08 417.886 160.76V135.08C417.886 133.8 418.506 133.16 419.746 133.16C420.946 133.16 421.546 133.8 421.546 135.08V160.76C421.546 162.08 420.946 162.74 419.746 162.74ZM442.287 162.98C439.647 162.98 437.367 162.38 435.447 161.18C433.527 159.94 432.027 158.2 430.947 155.96C429.907 153.68 429.387 151 429.387 147.92C429.387 143.32 430.547 139.66 432.867 136.94C435.187 134.22 438.327 132.86 442.287 132.86C444.607 132.86 446.647 133.4 448.407 134.48C450.207 135.52 451.547 136.96 452.427 138.8V121.7C452.427 120.46 453.027 119.84 454.227 119.84C455.467 119.84 456.087 120.46 456.087 121.7V161C456.087 162.24 455.487 162.86 454.287 162.86C453.047 162.86 452.427 162.24 452.427 161V157.04C451.547 158.88 450.207 160.34 448.407 161.42C446.647 162.46 444.607 162.98 442.287 162.98ZM442.767 159.92C445.727 159.92 448.087 158.88 449.847 156.8C451.607 154.68 452.487 151.72 452.487 147.92C452.487 144.12 451.607 141.18 449.847 139.1C448.087 137.02 445.727 135.98 442.767 135.98C439.807 135.98 437.447 137.02 435.687 139.1C433.967 141.18 433.107 144.12 433.107 147.92C433.107 151.72 433.967 154.68 435.687 156.8C437.447 158.88 439.807 159.92 442.767 159.92ZM467.498 162.68C466.698 162.68 466.038 162.42 465.518 161.9C464.998 161.38 464.738 160.72 464.738 159.92C464.738 159.12 464.998 158.46 465.518 157.94C466.038 157.42 466.698 157.16 467.498 157.16C468.338 157.16 468.998 157.42 469.478 157.94C469.998 158.46 470.258 159.12 470.258 159.92C470.258 160.72 469.998 161.38 469.478 161.9C468.998 162.42 468.338 162.68 467.498 162.68ZM481.156 125.9C479.396 125.9 478.516 125.06 478.516 123.38C478.516 121.74 479.396 120.92 481.156 120.92C482.916 120.92 483.796 121.74 483.796 123.38C483.796 125.06 482.916 125.9 481.156 125.9ZM472.696 173.96C471.936 174 471.416 173.78 471.136 173.3C470.816 172.82 470.756 172.32 470.956 171.8C471.156 171.28 471.596 171 472.276 170.96C474.636 170.88 476.396 170.26 477.556 169.1C478.756 167.98 479.356 166.16 479.356 163.64V134.9C479.356 133.62 479.956 132.98 481.156 132.98C482.396 132.98 483.016 133.62 483.016 134.9V163.4C483.016 167 482.096 169.64 480.256 171.32C478.456 173.04 475.936 173.92 472.696 173.96ZM502.073 162.98C500.273 162.98 498.473 162.74 496.673 162.26C494.913 161.78 493.233 160.96 491.633 159.8C491.113 159.48 490.873 159.04 490.913 158.48C490.953 157.88 491.173 157.42 491.573 157.1C492.013 156.78 492.553 156.82 493.193 157.22C494.753 158.26 496.273 158.98 497.753 159.38C499.233 159.78 500.713 159.98 502.193 159.98C504.673 159.98 506.533 159.54 507.773 158.66C509.053 157.74 509.693 156.48 509.693 154.88C509.693 153.64 509.273 152.66 508.433 151.94C507.593 151.22 506.273 150.64 504.473 150.2L499.253 149C494.333 147.88 491.873 145.34 491.873 141.38C491.873 138.82 492.873 136.76 494.873 135.2C496.873 133.64 499.513 132.86 502.793 132.86C504.513 132.86 506.173 133.12 507.773 133.64C509.413 134.16 510.833 134.96 512.033 136.04C512.553 136.44 512.773 136.92 512.693 137.48C512.613 138.04 512.333 138.46 511.853 138.74C511.413 139.02 510.893 138.94 510.293 138.5C509.133 137.62 507.913 136.98 506.633 136.58C505.353 136.14 504.053 135.92 502.733 135.92C500.413 135.92 498.613 136.4 497.333 137.36C496.093 138.32 495.473 139.62 495.473 141.26C495.473 142.5 495.853 143.5 496.613 144.26C497.373 145.02 498.613 145.6 500.333 146L505.553 147.2C508.153 147.8 510.093 148.7 511.373 149.9C512.653 151.06 513.293 152.64 513.293 154.64C513.293 157.24 512.273 159.28 510.233 160.76C508.193 162.24 505.473 162.98 502.073 162.98Z" fill="#C7C8D1"/>
<defs>
<linearGradient id="paint0_linear_17_44" x1="179.802" y1="49.159" x2="43.778" y2="121.366" gradientUnits="userSpaceOnUse">
<stop stop-color="#B0B9FF"/>
<stop offset="1" stop-color="#E7E9FF"/>
</linearGradient>
</defs>
</svg>
